<svg width="34" height="35" viewBox="0 0 34 35" fill="none" xmlns="http://www.w3.org/2000/svg">
<path d="M23.5111 20.8978C23.3767 21.0322 23.1929 21.117 22.9808 21.117C22.5706 21.117 22.2312 20.7776 22.2312 20.3675L22.2312 12.5327L14.3965 12.5327C13.9864 12.5327 13.6469 12.1933 13.6469 11.7832C13.6469 11.3731 13.9864 11.0337 14.3965 11.0337L22.9808 11.0337C23.3909 11.0337 23.7303 11.3731 23.7303 11.7832L23.7303 20.3675C23.7303 20.5796 23.6454 20.7635 23.5111 20.8978Z" fill="#0F82ED"/>
<path d="M23.391 12.4339L11.4904 24.3345C11.2005 24.6244 10.7197 24.6244 10.4297 24.3345C10.1398 24.0446 10.1398 23.5638 10.4297 23.2739L22.3304 11.3733C22.6203 11.0833 23.1011 11.0833 23.391 11.3733C23.6809 11.6632 23.6809 12.144 23.391 12.4339Z" fill="#0F82ED"/>
</svg>
