<svg width="34" height="35" viewBox="0 0 34 35" fill="none" xmlns="http://www.w3.org/2000/svg">
<path d="M23.5113 20.8978C23.377 21.0322 23.1931 21.117 22.981 21.117C22.5709 21.117 22.2315 20.7776 22.2315 20.3675L22.2315 12.5327L14.3967 12.5327C13.9866 12.5327 13.6472 12.1933 13.6472 11.7832C13.6472 11.3731 13.9866 11.0337 14.3967 11.0337L22.981 11.0337C23.3911 11.0337 23.7305 11.3731 23.7305 11.7832L23.7305 20.3675C23.7305 20.5796 23.6457 20.7635 23.5113 20.8978Z" fill="#0F82ED"/>
<path d="M23.391 12.4339L11.4904 24.3345C11.2005 24.6244 10.7197 24.6244 10.4297 24.3345C10.1398 24.0446 10.1398 23.5638 10.4297 23.2739L22.3304 11.3733C22.6203 11.0833 23.1011 11.0833 23.391 11.3733C23.6809 11.6632 23.6809 12.144 23.391 12.4339Z" fill="#0F82ED"/>
</svg>
