<svg width="34" height="34" viewBox="0 0 34 34" fill="none" xmlns="http://www.w3.org/2000/svg">
<path d="M23.5113 20.1334C23.3769 20.2678 23.1931 20.3526 22.9809 20.3526C22.5708 20.3526 22.2314 20.0132 22.2314 19.6031L22.2314 11.7683L14.3967 11.7683C13.9865 11.7683 13.6471 11.4289 13.6471 11.0188C13.6471 10.6087 13.9865 10.2693 14.3967 10.2693L22.9809 10.2693C23.3911 10.2693 23.7305 10.6087 23.7305 11.0188L23.7305 19.6031C23.7305 19.8152 23.6456 19.9991 23.5113 20.1334Z" fill="#0F82ED"/>
<path d="M23.3911 11.6695L11.4905 23.5701C11.2006 23.86 10.7197 23.86 10.4298 23.5701C10.1399 23.2802 10.1399 22.7994 10.4298 22.5095L22.3304 10.6089C22.6203 10.3189 23.1012 10.3189 23.3911 10.6089C23.681 10.8988 23.681 11.3796 23.3911 11.6695Z" fill="#0F82ED"/>
</svg>
