<svg width="34" height="34" viewBox="0 0 34 34" fill="none" xmlns="http://www.w3.org/2000/svg">
<path d="M23.5111 20.0748C23.3767 20.2092 23.1929 20.294 22.9808 20.294C22.5706 20.294 22.2312 19.9546 22.2312 19.5445L22.2312 11.7097L14.3965 11.7097C13.9864 11.7097 13.6469 11.3703 13.6469 10.9602C13.6469 10.5501 13.9864 10.2107 14.3965 10.2107L22.9808 10.2107C23.3909 10.2107 23.7303 10.5501 23.7303 10.9602L23.7303 19.5445C23.7303 19.7566 23.6454 19.9405 23.5111 20.0748Z" fill="#0F82ED"/>
<path d="M23.391 11.6107L11.4904 23.5113C11.2005 23.8012 10.7197 23.8012 10.4297 23.5113C10.1398 23.2214 10.1398 22.7405 10.4297 22.4506L22.3304 10.55C22.6203 10.2601 23.1011 10.2601 23.391 10.55C23.6809 10.8399 23.6809 11.3208 23.391 11.6107Z" fill="#0F82ED"/>
</svg>
