<svg width="34" height="34" viewBox="0 0 34 34" fill="none" xmlns="http://www.w3.org/2000/svg">
<path d="M23.5113 20.0748C23.377 20.2092 23.1931 20.294 22.981 20.294C22.5709 20.294 22.2315 19.9546 22.2315 19.5445L22.2315 11.7097L14.3967 11.7097C13.9866 11.7097 13.6472 11.3703 13.6472 10.9602C13.6472 10.5501 13.9866 10.2107 14.3967 10.2107L22.981 10.2107C23.3911 10.2107 23.7305 10.5501 23.7305 10.9602L23.7305 19.5445C23.7305 19.7566 23.6457 19.9405 23.5113 20.0748Z" fill="#0F82ED"/>
<path d="M23.391 11.6107L11.4904 23.5113C11.2005 23.8012 10.7197 23.8012 10.4297 23.5113C10.1398 23.2214 10.1398 22.7405 10.4297 22.4506L22.3304 10.55C22.6203 10.2601 23.1011 10.2601 23.391 10.55C23.6809 10.8399 23.6809 11.3208 23.391 11.6107Z" fill="#0F82ED"/>
</svg>
