<svg width="34" height="35" viewBox="0 0 34 35" fill="none" xmlns="http://www.w3.org/2000/svg">
<path d="M23.5111 20.9571C23.3767 21.0915 23.1929 21.1763 22.9808 21.1763C22.5706 21.1763 22.2312 20.8369 22.2312 20.4268L22.2312 12.5921L14.3965 12.5921C13.9864 12.5921 13.6469 12.2527 13.6469 11.8425C13.6469 11.4324 13.9864 11.093 14.3965 11.093L22.9808 11.093C23.3909 11.093 23.7303 11.4324 23.7303 11.8425L23.7303 20.4268C23.7303 20.6389 23.6454 20.8228 23.5111 20.9571Z" fill="#0F82ED"/>
<path d="M23.391 12.493L11.4904 24.3936C11.2005 24.6835 10.7197 24.6835 10.4297 24.3936C10.1398 24.1037 10.1398 23.6229 10.4297 23.333L22.3304 11.4323C22.6203 11.1424 23.1011 11.1424 23.391 11.4323C23.6809 11.7223 23.6809 12.2031 23.391 12.493Z" fill="#0F82ED"/>
</svg>
