<svg width="34" height="34" viewBox="0 0 34 34" fill="none" xmlns="http://www.w3.org/2000/svg">
<path d="M23.5113 20.0747C23.377 20.2091 23.1931 20.294 22.981 20.294C22.5708 20.294 22.2314 19.9545 22.2314 19.5444L22.2314 11.7097L14.3967 11.7097C13.9866 11.7097 13.6472 11.3703 13.6472 10.9601C13.6472 10.55 13.9866 10.2106 14.3967 10.2106L22.981 10.2106C23.3911 10.2106 23.7305 10.55 23.7305 10.9601L23.7305 19.5444C23.7305 19.7566 23.6457 19.9404 23.5113 20.0747Z" fill="#0F82ED"/>
<path d="M23.3911 11.6107L11.4905 23.5113C11.2006 23.8013 10.7197 23.8013 10.4298 23.5113C10.1399 23.2214 10.1399 22.7406 10.4298 22.4507L22.3304 10.5501C22.6203 10.2602 23.1012 10.2602 23.3911 10.5501C23.681 10.84 23.681 11.3208 23.3911 11.6107Z" fill="#0F82ED"/>
</svg>
