<svg width="34" height="35" viewBox="0 0 34 35" fill="none" xmlns="http://www.w3.org/2000/svg">
<path d="M23.5113 21.016C23.377 21.1503 23.1931 21.2352 22.981 21.2352C22.5709 21.2352 22.2315 20.8958 22.2315 20.4856L22.2315 12.6509L14.3967 12.6509C13.9866 12.6509 13.6472 12.3115 13.6472 11.9014C13.6472 11.4912 13.9866 11.1518 14.3967 11.1518L22.981 11.1518C23.3911 11.1518 23.7305 11.4912 23.7305 11.9014L23.7305 20.4856C23.7305 20.6978 23.6457 20.8816 23.5113 21.016Z" fill="#0F82ED"/>
<path d="M23.391 12.5518L11.4904 24.4524C11.2005 24.7424 10.7197 24.7424 10.4297 24.4524C10.1398 24.1625 10.1398 23.6817 10.4297 23.3918L22.3304 11.4912C22.6203 11.2013 23.1011 11.2013 23.391 11.4912C23.6809 11.7811 23.6809 12.2619 23.391 12.5518Z" fill="#0F82ED"/>
</svg>
