<svg width="34" height="35" viewBox="0 0 34 35" fill="none" xmlns="http://www.w3.org/2000/svg">
<path d="M23.5113 20.6336C23.377 20.768 23.1931 20.8529 22.981 20.8529C22.5708 20.8529 22.2314 20.5134 22.2314 20.1033L22.2314 12.2686L14.3967 12.2686C13.9866 12.2686 13.6472 11.9292 13.6472 11.519C13.6472 11.1089 13.9866 10.7695 14.3967 10.7695L22.981 10.7695C23.3911 10.7695 23.7305 11.1089 23.7305 11.519L23.7305 20.1033C23.7305 20.3155 23.6457 20.4993 23.5113 20.6336Z" fill="#0F82ED"/>
<path d="M23.3911 12.1695L11.4905 24.0701C11.2006 24.36 10.7197 24.36 10.4298 24.0701C10.1399 23.7802 10.1399 23.2994 10.4298 23.0095L22.3304 11.1089C22.6203 10.8189 23.1012 10.8189 23.3911 11.1089C23.681 11.3988 23.681 11.8796 23.3911 12.1695Z" fill="#0F82ED"/>
</svg>
