<svg width="101" height="100" viewBox="0 0 101 100" fill="none" xmlns="http://www.w3.org/2000/svg">
<g clip-path="url(#clip0_223_7840)">
<path fill-rule="evenodd" clip-rule="evenodd" d="M50.5 93.75C62.1032 93.75 73.2312 89.1406 81.4359 80.9359C89.6406 72.7312 94.25 61.6032 94.25 50C94.25 38.3968 89.6406 27.2688 81.4359 19.0641C73.2312 10.8594 62.1032 6.25 50.5 6.25C38.8968 6.25 27.7688 10.8594 19.5641 19.0641C11.3594 27.2688 6.75 38.3968 6.75 50C6.75 61.6032 11.3594 72.7312 19.5641 80.9359C27.7688 89.1406 38.8968 93.75 50.5 93.75ZM50.5 100C63.7608 100 76.4785 94.7322 85.8553 85.3553C95.2322 75.9785 100.5 63.2608 100.5 50C100.5 36.7392 95.2322 24.0215 85.8553 14.6447C76.4785 5.26784 63.7608 0 50.5 0C37.2392 0 24.5215 5.26784 15.1447 14.6447C5.76784 24.0215 0.5 36.7392 0.5 50C0.5 63.2608 5.76784 75.9785 15.1447 85.3553C24.5215 94.7322 37.2392 100 50.5 100Z" fill="#56B280"/>
<path fill-rule="evenodd" clip-rule="evenodd" d="M69.0625 31.0625C69.9372 30.1955 71.118 29.7075 72.3496 29.7041C73.5812 29.7007 74.7646 30.1822 75.6441 31.0444C76.5236 31.9066 77.0283 33.0803 77.0493 34.3117C77.0703 35.5431 76.6058 36.7334 75.7563 37.625L50.8063 68.8125C50.3775 69.2744 49.8599 69.6451 49.2846 69.9023C48.7093 70.1596 48.088 70.2982 47.4578 70.3099C46.8277 70.3216 46.2017 70.2061 45.6172 69.9703C45.0328 69.7345 44.5019 69.3832 44.0563 68.9375L27.525 52.4C27.0645 51.9709 26.6951 51.4534 26.4389 50.8784C26.1827 50.3034 26.0449 49.6827 26.0338 49.0533C26.0227 48.4239 26.1385 47.7987 26.3742 47.2151C26.61 46.6314 26.9609 46.1012 27.406 45.6561C27.8511 45.2109 28.3813 44.86 28.965 44.6243C29.5487 44.3885 30.1739 44.2727 30.8033 44.2838C31.4327 44.295 32.0534 44.4327 32.6284 44.6889C33.2034 44.9451 33.7209 45.3145 34.15 45.775L47.2375 58.8563L68.9438 31.2C68.9825 31.1516 69.0242 31.1057 69.0688 31.0625H69.0625Z" fill="#56B280"/>
</g>
<defs>
<clipPath id="clip0_223_7840">
<rect width="100" height="100" fill="white" transform="translate(0.5)"/>
</clipPath>
</defs>
</svg>
