<svg width="24" height="25" viewBox="0 0 24 25" fill="none" xmlns="http://www.w3.org/2000/svg">
<path d="M12 23.6323C6.07 23.6323 1.25 18.8123 1.25 12.8823C1.25 6.95232 6.07 2.13232 12 2.13232C17.93 2.13232 22.75 6.95232 22.75 12.8823C22.75 18.8123 17.93 23.6323 12 23.6323ZM12 3.63232C6.9 3.63232 2.75 7.78232 2.75 12.8823C2.75 17.9823 6.9 22.1323 12 22.1323C17.1 22.1323 21.25 17.9823 21.25 12.8823C21.25 7.78232 17.1 3.63232 12 3.63232Z" fill="#B3B3B3"/>
<path d="M15.7099 16.8123C15.5799 16.8123 15.4499 16.7823 15.3299 16.7023L12.2299 14.8523C11.4599 14.3923 10.8899 13.3823 10.8899 12.4923V8.39233C10.8899 7.98233 11.2299 7.64233 11.6399 7.64233C12.0499 7.64233 12.3899 7.98233 12.3899 8.39233V12.4923C12.3899 12.8523 12.6899 13.3823 12.9999 13.5623L16.0999 15.4123C16.4599 15.6223 16.5699 16.0823 16.3599 16.4423C16.2099 16.6823 15.9599 16.8123 15.7099 16.8123Z" fill="#B3B3B3"/>
</svg>
