<svg width="24" height="25" viewBox="0 0 24 25" fill="none" xmlns="http://www.w3.org/2000/svg">
<path d="M12 23.6912C6.07 23.6912 1.25 18.8712 1.25 12.9412C1.25 7.01116 6.07 2.19116 12 2.19116C17.93 2.19116 22.75 7.01116 22.75 12.9412C22.75 18.8712 17.93 23.6912 12 23.6912ZM12 3.69116C6.9 3.69116 2.75 7.84116 2.75 12.9412C2.75 18.0412 6.9 22.1912 12 22.1912C17.1 22.1912 21.25 18.0412 21.25 12.9412C21.25 7.84116 17.1 3.69116 12 3.69116Z" fill="#B3B3B3"/>
<path d="M15.7099 16.8712C15.5799 16.8712 15.4499 16.8412 15.3299 16.7612L12.2299 14.9112C11.4599 14.4512 10.8899 13.4412 10.8899 12.5512V8.45117C10.8899 8.04117 11.2299 7.70117 11.6399 7.70117C12.0499 7.70117 12.3899 8.04117 12.3899 8.45117V12.5512C12.3899 12.9112 12.6899 13.4412 12.9999 13.6212L16.0999 15.4712C16.4599 15.6812 16.5699 16.1412 16.3599 16.5012C16.2099 16.7412 15.9599 16.8712 15.7099 16.8712Z" fill="#B3B3B3"/>
</svg>
