<svg width="24" height="25" viewBox="0 0 24 25" fill="none" xmlns="http://www.w3.org/2000/svg">
<path d="M12 23.6323C6.07 23.6323 1.25 18.8123 1.25 12.8823C1.25 6.95232 6.07 2.13232 12 2.13232C17.93 2.13232 22.75 6.95232 22.75 12.8823C22.75 18.8123 17.93 23.6323 12 23.6323ZM12 3.63232C6.9 3.63232 2.75 7.78232 2.75 12.8823C2.75 17.9823 6.9 22.1323 12 22.1323C17.1 22.1323 21.25 17.9823 21.25 12.8823C21.25 7.78232 17.1 3.63232 12 3.63232Z" fill="#B3B3B3"/>
<path d="M15.7101 16.8123C15.5801 16.8123 15.4501 16.7823 15.3301 16.7023L12.2301 14.8523C11.4601 14.3923 10.8901 13.3823 10.8901 12.4923V8.39233C10.8901 7.98233 11.2301 7.64233 11.6401 7.64233C12.0501 7.64233 12.3901 7.98233 12.3901 8.39233V12.4923C12.3901 12.8523 12.6901 13.3823 13.0001 13.5623L16.1001 15.4123C16.4601 15.6223 16.5701 16.0823 16.3601 16.4423C16.2101 16.6823 15.9601 16.8123 15.7101 16.8123Z" fill="#B3B3B3"/>
</svg>
