<svg width="24" height="25" viewBox="0 0 24 25" fill="none" xmlns="http://www.w3.org/2000/svg">
<path d="M12 23.5732C6.07 23.5732 1.25 18.7532 1.25 12.8232C1.25 6.89324 6.07 2.07324 12 2.07324C17.93 2.07324 22.75 6.89324 22.75 12.8232C22.75 18.7532 17.93 23.5732 12 23.5732ZM12 3.57324C6.9 3.57324 2.75 7.72324 2.75 12.8232C2.75 17.9232 6.9 22.0732 12 22.0732C17.1 22.0732 21.25 17.9232 21.25 12.8232C21.25 7.72324 17.1 3.57324 12 3.57324Z" fill="#B3B3B3"/>
<path d="M15.7099 16.7533C15.5799 16.7533 15.4499 16.7233 15.3299 16.6433L12.2299 14.7933C11.4599 14.3333 10.8899 13.3233 10.8899 12.4333V8.33325C10.8899 7.92325 11.2299 7.58325 11.6399 7.58325C12.0499 7.58325 12.3899 7.92325 12.3899 8.33325V12.4333C12.3899 12.7933 12.6899 13.3233 12.9999 13.5033L16.0999 15.3533C16.4599 15.5633 16.5699 16.0233 16.3599 16.3833C16.2099 16.6233 15.9599 16.7533 15.7099 16.7533Z" fill="#B3B3B3"/>
</svg>
