<svg width="52" height="52" viewBox="0 0 52 52" fill="none" xmlns="http://www.w3.org/2000/svg">
<circle cx="26" cy="26" r="25" fill="white" stroke="#0F82ED"/>
<path d="M39.8366 31.848C39.4436 31.0335 38.4532 30.6707 37.6016 31.038L31.6305 32.8506C31.8387 31.7699 30.9172 30.896 29.883 30.896H25.9096L22.4652 29.6745C21.5969 29.3669 20.6875 29.2108 19.7632 29.2108H17.7021V28.2995C17.7021 27.5915 17.1083 27.0157 16.3783 27.0157L13.3239 27.0154C12.5938 27.0154 12 27.5914 12 28.2993V37.9981C12 38.7061 12.5939 39.2819 13.3239 39.2819H16.3783C17.1083 39.2819 17.7021 38.706 17.7021 37.9981V37.2002H18.7974C19.0495 37.2002 19.2931 37.2413 19.5239 37.323L26.9269 39.8791C27.5329 40.0846 28.1987 40.0259 28.7517 39.7197L39.0152 34.0482C39.8608 33.6635 40.2434 32.6732 39.8369 31.8482L39.8366 31.848ZM16.3785 38.4073H13.324C13.0915 38.4073 12.9023 38.2239 12.9023 37.9984V28.2996C12.9023 28.0743 13.0913 27.8906 13.324 27.8906H16.3785C16.611 27.8906 16.8001 28.0741 16.8001 28.2996V37.9984C16.8001 38.2239 16.611 38.4073 16.3785 38.4073ZM38.6003 33.2723L28.3046 38.9605C27.9776 39.1414 27.5848 39.1757 27.2269 39.0549C26.4708 38.7937 29.9661 40.0007 19.8317 36.501C19.5034 36.3848 19.1555 36.3258 18.7976 36.3258H17.7024L17.7026 30.0862H19.7637C20.5823 30.0862 21.3872 30.2243 22.1559 30.4968C25.8374 31.7927 25.6832 31.7714 25.8302 31.7714H29.8835C30.3547 31.7714 30.7925 32.1427 30.7621 32.5988C30.7317 33.0648 30.3245 33.3297 29.9584 33.3297H25.6049C24.3937 33.3297 23.4081 34.2853 23.4081 35.4599V35.7317C23.4081 35.9732 23.6098 36.1693 23.8593 36.1693C24.1086 36.1693 24.3105 35.9734 24.3105 35.7317V35.4599C24.3105 34.7679 24.8911 34.2049 25.6049 34.2049H29.9584C30.4064 34.2049 29.996 34.2327 37.8984 31.8654C38.4951 31.6879 38.8391 31.8458 39.021 32.223C39.2001 32.5862 39.0664 33.0571 38.6002 33.2727L38.6003 33.2723Z" fill="#0F82ED"/>
<path d="M21.5808 24.3572C21.5808 27.3876 24.1228 29.853 27.2473 29.853C30.3724 29.853 32.9144 27.3878 32.9144 24.3572C32.9144 21.3271 30.3724 18.862 27.2473 18.862C24.1228 18.862 21.5808 21.3271 21.5808 24.3572V24.3572ZM27.2473 19.7371C29.8745 19.7371 32.0119 21.8097 32.0119 24.3572C32.0119 26.9049 29.8742 28.9776 27.2473 28.9776C24.6202 28.9776 22.4832 26.9047 22.4832 24.3572C22.4829 21.8095 24.6202 19.7371 27.2473 19.7371V19.7371Z" fill="#0F82ED"/>
<path d="M27.2451 26.8822C26.6534 26.8822 26.1718 26.4126 26.1718 25.8356C26.1718 25.5941 25.97 25.3981 25.7206 25.3981C25.4713 25.3981 25.2693 25.5939 25.2693 25.8356C25.2693 26.7436 25.922 27.5021 26.7936 27.7019V28.1376C26.7936 28.3791 26.9954 28.5752 27.2449 28.5752C27.4941 28.5752 27.6961 28.3793 27.6961 28.1376V27.7024C28.5711 27.5032 29.2262 26.7443 29.2262 25.8356C29.2262 24.7792 28.3377 23.9199 27.245 23.9199C26.6533 23.9199 26.1717 23.4505 26.1717 22.8735C26.1717 22.2997 26.6533 21.8327 27.245 21.8327C27.8398 21.8327 28.324 22.2997 28.324 22.8735C28.324 23.1151 28.5257 23.3111 28.7752 23.3111C29.0245 23.3111 29.2264 23.1153 29.2264 22.8735C29.2264 21.9679 28.5713 21.2111 27.6963 21.0125V20.5773C27.6963 20.3358 27.4945 20.1397 27.245 20.1397C26.9958 20.1397 26.7938 20.3355 26.7938 20.5773V21.0129C25.9222 21.2121 25.2695 21.9683 25.2695 22.8736C25.2695 23.9329 26.1559 24.7949 27.245 24.7949C27.8398 24.7949 28.324 25.2619 28.324 25.8357C28.324 26.4127 27.8398 26.8823 27.245 26.8823L27.2451 26.8822Z" fill="#0F82ED"/>
<path d="M25.4319 14.5567C25.4319 14.3152 25.2302 14.1191 24.9807 14.1191C24.7314 14.1191 24.5295 14.315 24.5295 14.5567V16.838C24.5295 17.0796 24.7312 17.2756 24.9807 17.2756C25.2299 17.2756 25.4319 17.0798 25.4319 16.838V14.5567Z" fill="#0F82ED"/>
<path d="M24.6626 17.9046C24.4826 18.0787 24.4934 18.3622 24.6626 18.5258C24.8319 18.6904 25.1212 18.6984 25.2988 18.5258C25.4727 18.3567 25.4733 18.0743 25.2988 17.9046C25.1318 17.7427 24.8295 17.7427 24.6626 17.9046Z" fill="#0F82ED"/>
<path d="M29.5141 17.2755C29.7634 17.2755 29.9653 17.0797 29.9653 16.838V14.5566C29.9653 14.3151 29.7636 14.1191 29.5141 14.1191C29.2649 14.1191 29.0629 14.3149 29.0629 14.5566V16.838C29.0629 17.0795 29.2649 17.2755 29.5141 17.2755Z" fill="#0F82ED"/>
<path d="M29.1962 18.5256C29.3864 18.71 29.6793 18.6738 29.8324 18.5256C29.9957 18.3676 30.0194 18.0857 29.8324 17.9044C29.6665 17.7425 29.376 17.7301 29.1962 17.9044C29.0403 18.0409 28.9956 18.3306 29.1962 18.5256Z" fill="#0F82ED"/>
<path d="M27.2479 15.1565C27.4971 15.1565 27.6991 14.9606 27.6991 14.7189V12.4376C27.6991 12.196 27.4974 12 27.2479 12C26.9986 12 26.7967 12.1958 26.7967 12.4376V14.7189C26.7967 14.9606 26.9984 15.1565 27.2479 15.1565Z" fill="#0F82ED"/>
<path d="M26.9272 16.4038C27.113 16.5845 27.3947 16.571 27.5677 16.4038C27.7824 16.1956 27.7299 15.8159 27.4187 15.6908C27.2713 15.6274 27.0665 15.6517 26.9271 15.7871C26.7571 15.9515 26.7491 16.2318 26.9271 16.4038L26.9272 16.4038Z" fill="#0F82ED"/>
</svg>
