<svg width="52" height="52" viewBox="0 0 52 52" fill="none" xmlns="http://www.w3.org/2000/svg">
<circle cx="26" cy="26" r="25" fill="white" stroke="#0F82ED"/>
<path d="M35.6706 31.1392C35.4052 31.1392 35.1904 31.348 35.1904 31.6056V37.6095C33.4675 37.2972 28.4387 36.6077 25.5555 38.5222V25.748C26.3396 25.3102 29.4368 23.8526 35.1904 24.3756V26.0089C35.1981 26.6206 36.1417 26.622 36.1507 26.0089V23.954C36.1507 23.716 35.966 23.5162 35.7226 23.4904C28.318 22.7086 24.9342 25.0125 24.7942 25.1109C24.6742 25.2015 24.5968 25.3397 24.5949 25.489V38.5217C21.7123 36.6067 16.6831 37.2967 14.9605 37.609V24.3754C15.4647 24.3296 15.964 24.2973 16.4503 24.2796C16.7153 24.2696 16.9222 24.0531 16.9117 23.7957C16.9014 23.5382 16.6795 23.3375 16.4137 23.3473C15.768 23.3712 15.0998 23.4193 14.4282 23.4903C14.1849 23.5161 14.0001 23.716 14.0001 23.954V38.18C13.9935 38.47 14.2979 38.7084 14.5886 38.6343C14.6627 38.6176 22.024 37.0062 24.7223 39.849C24.8606 39.9792 25.0651 40.0435 25.2503 39.9675C27.8787 37.0431 35.4499 38.5643 35.5624 38.6344C35.8518 38.7071 36.1592 38.471 36.1509 38.18V31.6053C36.1511 31.3477 35.9363 31.1389 35.6709 31.1389L35.6706 31.1392Z" fill="#0F82ED"/>
<path d="M17.5443 24.6045V25.9077C17.5443 26.5163 17.9763 27.0245 18.5568 27.1696V27.7323C18.5568 28.8031 19.4539 29.674 20.5564 29.674C21.6589 29.674 22.5554 28.8029 22.5554 27.7323V27.1696C23.1361 27.0245 23.5683 26.5163 23.5683 25.9077V24.4964C23.5683 23.1245 24.0395 21.7976 24.8972 20.7588C28.9562 15.4878 22.0467 9.14484 16.8614 13.3915C14.6866 15.2172 14.3885 18.6442 16.2406 20.7833C17.0813 21.7949 17.5442 23.1517 17.5442 24.6042L17.5443 24.6045ZM21.595 27.7323C21.5588 29.0633 19.5529 29.0621 19.5171 27.7323V27.215H21.595V27.7323ZM22.6079 25.9078C22.6042 26.1936 22.3388 26.3144 22.0752 26.2823H19.037H18.8901C18.6777 26.2823 18.5047 26.1143 18.5047 25.9078C18.5019 25.6511 18.5141 24.5004 18.491 24.2643H22.6177C22.6004 24.3913 22.61 25.747 22.6079 25.9078H22.6079ZM17.5021 14.0865C20.2334 11.6438 24.774 13.4059 25.1164 16.9639C25.2352 18.1264 24.89 19.2679 24.1462 20.1767C23.3999 21.0807 22.9065 22.1722 22.7073 23.3314H21.0368V19.2065L22.3363 17.9444C22.7783 17.5116 22.1031 16.8554 21.6572 17.2851L20.5562 18.3543L19.4552 17.2851C19.0096 16.8558 18.3339 17.5116 18.7763 17.9446L20.0767 19.2075V23.3316H18.3956C18.1932 22.1524 17.7118 21.0685 16.9885 20.1979C15.4566 18.4287 15.7033 15.596 17.5019 14.0863L17.5021 14.0865Z" fill="#0F82ED"/>
<path d="M30.8369 27.8747C30.8369 28.1323 31.0517 28.3411 31.3171 28.3411H38.5198C38.7852 28.3411 39 28.1323 39 27.8747C39 27.6172 38.7852 27.4084 38.5198 27.4084H31.3171C31.0517 27.4084 30.8369 27.6172 30.8369 27.8747Z" fill="#0F82ED"/>
<path d="M38.5198 29.7402H34.1982C33.5683 29.7502 33.566 30.6625 34.1982 30.6729H38.5198C39.1498 30.6629 39.152 29.7504 38.5198 29.7402Z" fill="#0F82ED"/>
<path d="M32.7269 22.2786C35.11 22.2786 37.0485 20.3957 37.0485 18.0814C37.0485 17.8239 36.8337 17.6151 36.5683 17.6151C36.303 17.6151 36.0882 17.8239 36.0882 18.0814C36.0882 19.8814 34.5801 21.3459 32.7269 21.3459C30.8737 21.3459 29.3656 19.8814 29.3656 18.0814C29.3292 15.3866 32.6868 13.8185 34.8257 15.5311C35.0335 15.6924 35.3355 15.6591 35.5006 15.4584C36.1525 14.5436 33.382 13.8008 32.7269 13.8843C26.9943 14.1143 26.9949 22.0488 32.7269 22.2785V22.2786Z" fill="#0F82ED"/>
<path d="M31.6261 17.7515C31.1819 17.322 30.5041 17.978 30.9472 18.411L32.3877 19.8101C32.5753 19.9922 32.8791 19.9922 33.0668 19.8101L37.3885 15.6129C37.829 15.1818 37.157 14.5229 36.7094 14.9536L32.7273 18.8209L31.6261 17.7515Z" fill="#0F82ED"/>
</svg>
