<svg width="52" height="52" viewBox="0 0 52 52" fill="none" xmlns="http://www.w3.org/2000/svg">
<circle cx="26" cy="26" r="25" fill="white" stroke="#0F82ED"/>
<path d="M39.097 20.1291C39.2281 20.1291 39.3472 20.1408 39.4515 20.1638L40.0003 20.2846V16.0646C40.0003 15.3176 39.3924 14.7097 38.6454 14.7097H35.4841C35.4841 13.2153 34.2688 12 32.7744 12C31.28 12 30.0647 13.2153 30.0647 14.7097H21.9356C21.9356 13.2153 20.7202 12 19.2259 12C17.7315 12 16.5162 13.2153 16.5162 14.7097H13.3549C12.6079 14.7097 12 15.3176 12 16.0646V20.2846L12.5488 20.164C12.653 20.1408 12.7722 20.1291 12.9032 20.1291C13.8994 20.1291 14.7097 20.9394 14.7097 21.9356C14.7097 22.9318 13.8994 23.7421 12.9032 23.7421C12.7732 23.7421 12.6541 23.7304 12.5478 23.7074L12 23.5876V30.9358C12 32.8282 12.6611 34.6478 13.8561 36.1044C13.8265 36.1937 13.8065 36.2877 13.8065 36.3871V40H22.8388V36.3871C22.8388 36.1106 22.7114 35.8663 22.5155 35.7001C23.3261 33.6679 23.7421 31.5299 23.7421 29.3347V29.1613H28.2583V29.3347C28.2583 31.53 28.6742 33.668 29.4849 35.7001C29.2889 35.8663 29.1615 36.1106 29.1615 36.3871V40H38.1939V36.3871C38.1939 36.2877 38.1739 36.1937 38.1443 36.1044C39.3392 34.6469 40.0003 32.8274 40.0003 30.9358V23.5876L39.4526 23.7074C39.3463 23.7304 39.2272 23.7421 39.0971 23.7421C38.1009 23.7421 37.2907 22.9318 37.2907 21.9356C37.2907 20.9394 38.1009 20.1291 39.0971 20.1291H39.097ZM21.9356 39.0971H14.7097V36.3873L21.9356 36.3869V39.0971ZM22.8388 29.3349C22.8388 31.4571 22.4291 33.5232 21.6299 35.4841H14.7096C14.6477 35.4841 14.5876 35.4904 14.5293 35.5023C13.4826 34.2115 12.9031 32.6055 12.9031 30.9359V27.355C13.4013 27.355 13.8063 27.7596 13.8063 28.2564V30.5189C13.8063 31.2647 14.416 31.8712 15.186 31.8712C15.5404 31.8712 15.8743 31.733 16.1257 31.4828C16.3777 31.2318 16.5164 30.898 16.5164 30.5431L16.516 25.0969C16.516 24.8481 16.7188 24.6453 16.9676 24.6453C17.2164 24.6453 17.4193 24.8481 17.4193 25.0969V30.0647H18.3225V24.1936C18.3225 23.9448 18.5253 23.742 18.7741 23.742C19.0229 23.742 19.2257 23.9448 19.2257 24.1936V30.0647H20.129V25.0969C20.129 24.8481 20.3318 24.6453 20.5806 24.6453C20.8294 24.6453 21.0322 24.8481 21.0322 25.0969V30.0647H21.9354V26.9033C21.9354 26.6545 22.1383 26.4517 22.387 26.4517C22.6358 26.4517 22.8387 26.6545 22.8387 26.9033L22.8388 29.3349ZM15.6129 30.5434C15.6129 30.6563 15.5686 30.7629 15.4883 30.8432C15.4075 30.9236 15.3 30.968 15.1657 30.968C14.9097 30.968 14.7097 30.7706 14.7097 30.519V29.1615H15.6129V30.5434ZM22.3872 25.5486C22.2283 25.5486 22.0773 25.581 21.9356 25.6317V25.097C21.9356 24.35 21.3277 23.7421 20.5807 23.7421C20.4023 23.7421 20.2329 23.7786 20.0767 23.8415C19.9208 23.2657 19.3988 22.8389 18.7743 22.8389C18.1497 22.8389 17.6281 23.2657 17.4719 23.8415C17.3156 23.7786 17.1462 23.7421 16.9678 23.7421C16.2208 23.7421 15.613 24.35 15.613 25.097V28.2583H14.7097V28.2565C14.7097 27.2611 13.8995 26.4518 12.9033 26.4518V24.6454C14.3976 24.6454 15.613 23.43 15.613 21.9357C15.613 20.4413 14.3976 19.226 12.9033 19.226V16.0646C12.9033 15.8158 13.1061 15.613 13.3549 15.613H17.5739L17.4541 15.0652C17.4311 14.959 17.4194 14.8398 17.4194 14.7098C17.4194 13.7136 18.2297 12.9033 19.2259 12.9033C20.2221 12.9033 21.0324 13.7136 21.0324 14.7098C21.0324 14.8398 21.0207 14.959 20.9977 15.0652L20.8779 15.613H25.5485V19.226C24.0542 19.226 22.8388 20.4413 22.8388 21.9357C22.8388 23.43 24.0542 24.6454 25.5485 24.6454V28.2583H23.7421V26.9035C23.7421 26.1565 23.1342 25.5486 22.3872 25.5486L22.3872 25.5486ZM37.2906 39.0971H30.0647V36.3874H37.2906V39.0971ZM39.097 30.936C39.097 32.6056 38.5176 34.2116 37.4708 35.5027C37.4125 35.4904 37.3524 35.4842 37.2905 35.4842H30.3702C29.571 33.5237 29.1613 31.4575 29.1613 29.335V29.1616H30.0646V30.9681H35.9392C35.9894 31.0576 36.0434 31.1443 36.1013 31.2291C35.7116 31.6447 35.484 32.1979 35.484 32.7745H36.3872C36.3872 32.3505 36.59 31.9449 36.9291 31.6906L37.4711 31.2846C37.9235 30.9455 38.1937 30.4035 38.1937 29.8358V28.2602C38.1937 27.7616 38.5987 27.3556 39.0969 27.3547L39.097 30.936ZM36.9293 30.5616L36.8059 30.6541C36.5367 30.2334 36.3873 29.7451 36.3873 29.2388V29.1616H37.2906V29.8354C37.2906 30.1205 37.1555 30.3918 36.9293 30.5616V30.5616ZM35.5853 30.0648H34.5809V29.1616H35.4841V29.2388C35.4841 29.5196 35.5206 29.7961 35.5853 30.0648L35.5853 30.0648ZM33.6776 30.0648H32.7744V29.1616H33.6776V30.0648ZM31.8712 30.0648H30.9679V29.1616H31.8712V30.0648ZM39.097 24.6454V26.4519C38.1017 26.4519 37.2914 27.2622 37.2906 28.2583H26.4517V23.5877L25.904 23.7075C25.7977 23.7305 25.6786 23.7422 25.5485 23.7422C24.5523 23.7422 23.7421 22.9319 23.7421 21.9357C23.7421 20.9395 24.5523 20.1292 25.5485 20.1292C25.6796 20.1292 25.7987 20.1409 25.903 20.1639L26.4518 20.2847V15.6131H31.1224L31.0026 15.0653C30.9796 14.959 30.9679 14.8399 30.9679 14.7098C30.9679 13.7136 31.7782 12.9034 32.7744 12.9034C33.7706 12.9034 34.5809 13.7136 34.5809 14.7098C34.5809 14.8399 34.5692 14.959 34.5462 15.0653L34.4264 15.6131H38.6454C38.8942 15.6131 39.097 15.8159 39.097 16.0647V19.226C37.6027 19.226 36.3873 20.4413 36.3873 21.9357C36.3873 23.4301 37.6027 24.6454 39.097 24.6454L39.097 24.6454Z" fill="#0F82ED"/>
</svg>
