<svg width="25" height="24" viewBox="0 0 25 24" fill="none" xmlns="http://www.w3.org/2000/svg">
<path d="M4.16389 3.46212C6.52135 1.11022 9.96228 -0.117353 13.3318 0.00884663C15.3082 0.135046 17.2847 0.628373 18.9754 1.64944C19.6779 2.07393 20.3803 2.52136 20.928 3.11794C20.3923 3.71452 19.7731 4.24226 19.2016 4.8159C18.6063 5.37806 18.0348 5.97464 17.4157 6.51385C16.4512 5.66488 15.2487 5.02241 13.939 4.85032C12.5817 4.70117 11.141 4.75853 9.90275 5.35511C8.50971 5.97464 7.35479 6.98423 6.58088 8.2577C6.31894 8.68219 6.14034 9.15257 5.92603 9.6C4.54489 8.62482 3.22328 7.56934 1.85405 6.57122C2.41365 5.401 3.19947 4.34552 4.16389 3.46212Z" fill="#EA4335"/>
<path d="M1.81598 6.54541C3.1712 7.58041 4.47928 8.66299 5.84628 9.68609C5.64594 10.6735 5.33955 11.6847 5.5281 12.7078C5.58702 13.2669 5.75201 13.8142 5.84628 14.3614C4.78568 15.2061 3.7015 16.0388 2.6409 16.8954C2.36985 17.1095 2.08703 17.2998 1.78063 17.4545C1.03821 15.9793 0.613966 14.3495 0.543259 12.6959C0.484337 11.6133 0.55504 10.5188 0.76716 9.44816C1.02642 8.46075 1.29747 7.44954 1.81598 6.54541Z" fill="#FBBC04"/>
<path d="M13.0082 10.0446C16.321 10.0446 19.6339 10.0446 22.9467 10.0446C23.3696 10.0446 23.7925 10.0107 24.2154 10.0786C24.9438 13.5536 24.1567 17.3909 21.7602 20.1302C21.5017 20.4245 21.2433 20.7528 20.8909 20.9452C19.5634 20.0057 18.3064 18.9983 16.9906 18.0475C18.1419 17.2211 19.023 15.9647 19.1757 14.5724C17.1081 14.5384 15.0405 14.5837 12.973 14.5498C12.9142 13.3725 12.973 12.184 12.9495 11.0068C12.9612 10.6898 12.9025 10.3616 13.0082 10.0446Z" fill="#4284F4"/>
<path d="M2.73623 16.8546C3.80914 16.0249 4.90589 15.2181 5.97881 14.3999C6.24107 14.8724 6.40796 15.4025 6.71792 15.852C7.69546 17.3963 9.24522 18.5372 11.0573 19.0213C12.3209 19.2863 13.6322 19.2863 14.884 18.9982C15.6231 18.8138 16.3026 18.4681 16.9702 18.1108C18.3054 19.0789 19.5809 20.1161 20.928 21.0611C20.6062 21.4645 20.1651 21.7411 19.7359 22.0292C17.7331 23.4006 15.2535 23.9423 12.8335 23.9999C10.3897 23.9538 7.94581 23.2854 5.93112 21.9255C4.19062 20.773 2.78391 19.2172 1.85405 17.3963C2.17593 17.2465 2.46204 17.0621 2.73623 16.8546Z" fill="#34A853"/>
</svg>
