<svg width="24" height="25" viewBox="0 0 24 25" fill="none" xmlns="http://www.w3.org/2000/svg">
<path d="M11.9999 15.0523C9.86988 15.0523 8.12988 13.3223 8.12988 11.1823C8.12988 9.04227 9.86988 7.32227 11.9999 7.32227C14.1299 7.32227 15.8699 9.05227 15.8699 11.1923C15.8699 13.3323 14.1299 15.0523 11.9999 15.0523ZM11.9999 8.82227C10.6999 8.82227 9.62988 9.88227 9.62988 11.1923C9.62988 12.5023 10.6899 13.5623 11.9999 13.5623C13.3099 13.5623 14.3699 12.5023 14.3699 11.1923C14.3699 9.88227 13.2999 8.82227 11.9999 8.82227Z" fill="#0F82ED"/>
<path d="M12.0002 23.6423C10.5202 23.6423 9.03018 23.0823 7.87018 21.9723C4.92018 19.1323 1.66018 14.6023 2.89018 9.21232C4.00018 4.32232 8.27018 2.13232 12.0002 2.13232C12.0002 2.13232 12.0002 2.13232 12.0102 2.13232C15.7402 2.13232 20.0102 4.32232 21.1202 9.22232C22.3402 14.6123 19.0802 19.1323 16.1302 21.9723C14.9702 23.0823 13.4802 23.6423 12.0002 23.6423ZM12.0002 3.63232C9.09018 3.63232 5.35018 5.18232 4.36018 9.54232C3.28018 14.2523 6.24018 18.3123 8.92018 20.8823C10.6502 22.5523 13.3602 22.5523 15.0902 20.8823C17.7602 18.3123 20.7202 14.2523 19.6602 9.54232C18.6602 5.18232 14.9102 3.63232 12.0002 3.63232Z" fill="#0F82ED"/>
</svg>
