<svg width="24" height="25" viewBox="0 0 24 25" fill="none" xmlns="http://www.w3.org/2000/svg">
<path d="M12 14.2288C9.87 14.2288 8.13 12.4988 8.13 10.3588C8.13 8.21878 9.87 6.49878 12 6.49878C14.13 6.49878 15.87 8.22878 15.87 10.3688C15.87 12.5088 14.13 14.2288 12 14.2288ZM12 7.99878C10.7 7.99878 9.63 9.05878 9.63 10.3688C9.63 11.6788 10.69 12.7388 12 12.7388C13.31 12.7388 14.37 11.6788 14.37 10.3688C14.37 9.05878 13.3 7.99878 12 7.99878Z" fill="#0F82ED"/>
<path d="M12 22.8188C10.52 22.8188 9.02999 22.2588 7.86999 21.1488C4.91999 18.3088 1.65999 13.7788 2.88999 8.38884C3.99999 3.49884 8.26999 1.30884 12 1.30884C12 1.30884 12 1.30884 12.01 1.30884C15.74 1.30884 20.01 3.49884 21.12 8.39884C22.34 13.7888 19.08 18.3088 16.13 21.1488C14.97 22.2588 13.48 22.8188 12 22.8188ZM12 2.80884C9.08999 2.80884 5.34999 4.35884 4.35999 8.71884C3.27999 13.4288 6.23999 17.4888 8.91999 20.0588C10.65 21.7288 13.36 21.7288 15.09 20.0588C17.76 17.4888 20.72 13.4288 19.66 8.71884C18.66 4.35884 14.91 2.80884 12 2.80884Z" fill="#0F82ED"/>
</svg>
