<svg width="24" height="25" viewBox="0 0 24 25" fill="none" xmlns="http://www.w3.org/2000/svg">
<path d="M11.9999 15.1111C9.86988 15.1111 8.12988 13.3811 8.12988 11.2411C8.12988 9.1011 9.86988 7.3811 11.9999 7.3811C14.1299 7.3811 15.8699 9.1111 15.8699 11.2511C15.8699 13.3911 14.1299 15.1111 11.9999 15.1111ZM11.9999 8.8811C10.6999 8.8811 9.62988 9.9411 9.62988 11.2511C9.62988 12.5611 10.6899 13.6211 11.9999 13.6211C13.3099 13.6211 14.3699 12.5611 14.3699 11.2511C14.3699 9.9411 13.2999 8.8811 11.9999 8.8811Z" fill="#0F82ED"/>
<path d="M12.0002 23.7012C10.5202 23.7012 9.03018 23.1412 7.87018 22.0312C4.92018 19.1912 1.66018 14.6612 2.89018 9.27116C4.00018 4.38116 8.27018 2.19116 12.0002 2.19116C12.0002 2.19116 12.0002 2.19116 12.0102 2.19116C15.7402 2.19116 20.0102 4.38116 21.1202 9.28116C22.3402 14.6712 19.0802 19.1912 16.1302 22.0312C14.9702 23.1412 13.4802 23.7012 12.0002 23.7012ZM12.0002 3.69116C9.09018 3.69116 5.35018 5.24116 4.36018 9.60116C3.28018 14.3112 6.24018 18.3712 8.92018 20.9412C10.6502 22.6112 13.3602 22.6112 15.0902 20.9412C17.7602 18.3712 20.7202 14.3112 19.6602 9.60116C18.6602 5.24116 14.9102 3.69116 12.0002 3.69116Z" fill="#0F82ED"/>
</svg>
