<svg width="30" height="30" viewBox="0 0 30 30" fill="none" xmlns="http://www.w3.org/2000/svg">
<path fill-rule="evenodd" clip-rule="evenodd" d="M18.4155 1.41086C17.5018 0.500755 16.2894 0 15.0003 0H14.9831C12.3244 0.00937431 10.1616 2.19989 10.1616 4.88334C10.1616 7.97849 11.87 11.1885 13.7433 14.3321L13.9024 14.236L14.0617 14.1399L14.0642 14.1384L14.0648 14.138C14.3219 13.9824 14.579 13.8268 14.8369 13.6712C13.055 10.6807 11.439 7.64882 11.439 4.88334C11.439 2.90219 13.0308 1.28431 14.9871 1.27728C15.9421 1.27415 16.8385 1.64288 17.5136 2.3155C18.1886 2.98891 18.561 3.88417 18.561 4.83803V10.8229C18.561 11.1752 18.8465 11.4611 19.2 11.4611C19.5528 11.4611 19.8383 11.1752 19.8383 10.8229V4.83803C19.8383 3.54278 19.333 2.32566 18.4155 1.41086ZM16.0008 15.6023C15.7859 15.7315 15.5709 15.8618 15.3565 15.9918L15.2295 16.0687C15.1581 16.1114 15.0867 16.1548 15.0152 16.1982L14.9081 16.2632C16.8315 19.449 18.561 22.4598 18.561 25.1612C18.561 26.115 18.1886 27.0103 17.5136 27.6837C16.8409 28.354 15.9492 28.7219 15.0003 28.7219H14.9871C13.0308 28.7157 11.439 27.0978 11.439 25.1159V19.2224C11.439 18.8693 11.1535 18.5834 10.7999 18.5834C10.4479 18.5834 10.1616 18.8693 10.1616 19.2224V25.1159C10.1616 27.7993 12.3244 29.9906 14.9831 30H15.0003C16.2894 30 17.5018 29.4992 18.4155 28.5884C19.333 27.6743 19.8383 26.4572 19.8383 25.1612C19.8383 23.68 19.4151 22.0793 18.5054 20.1255C17.8139 18.6404 16.9074 17.1046 16.0008 15.6023ZM19.1774 19.838H25.162C26.4574 19.838 27.6745 19.3326 28.5889 18.4154C29.5041 17.4975 30.0047 16.2781 30 14.9828C29.9906 12.3244 27.8004 10.1612 25.1159 10.1612C21.5764 10.1612 17.8852 12.3962 14.3153 14.5578L14.3152 14.5578L14.3148 14.5581C10.9147 16.6165 7.70308 18.5608 4.83798 18.5608C3.88447 18.5608 2.98884 18.1889 2.31614 17.5132C1.64266 16.8382 1.27425 15.9406 1.27737 14.9867C1.28441 13.0306 2.90202 11.4392 4.88413 11.4392H10.7773C11.13 11.4392 11.4163 11.1533 11.4163 10.8002C11.4163 10.4471 11.13 10.1612 10.7773 10.1612H4.88413C2.19959 10.1612 0.00941912 12.3244 3.26502e-05 14.9828C-0.00466048 16.2781 0.496733 17.4975 1.41113 18.4154C2.32553 19.3326 3.54264 19.838 4.83798 19.838C6.31947 19.838 7.91987 19.4146 9.87382 18.5053C11.5467 17.7268 13.2834 16.6755 14.9635 15.6584L14.9761 15.6507C18.3967 13.5798 21.9331 11.4392 25.1159 11.4392C27.098 11.4392 28.7164 13.0306 28.7226 14.9867C28.7265 15.9406 28.3573 16.8382 27.6846 17.5132C27.0112 18.1889 26.1155 18.5608 25.162 18.5608H19.1774C18.8246 18.5608 18.5383 18.8467 18.5383 19.199C18.5383 19.5521 18.8246 19.838 19.1774 19.838Z" fill="white"/>
</svg>
