<svg width="24" height="25" viewBox="0 0 24 25" fill="none" xmlns="http://www.w3.org/2000/svg">
<path d="M15.0001 23.5732H9.00014C7.68014 23.5732 6.58015 23.4433 5.65015 23.1633C5.31015 23.0633 5.09015 22.7332 5.11015 22.3832C5.36015 19.3932 8.39015 17.0432 12.0001 17.0432C15.6101 17.0432 18.6301 19.3832 18.8901 22.3832C18.9201 22.7432 18.7001 23.0633 18.3501 23.1633C17.4201 23.4433 16.3201 23.5732 15.0001 23.5732ZM6.72015 21.8832C7.38015 22.0132 8.13014 22.0732 9.00014 22.0732H15.0001C15.8701 22.0732 16.6201 22.0132 17.2801 21.8832C16.7501 19.9632 14.5601 18.5432 12.0001 18.5432C9.44015 18.5432 7.25015 19.9632 6.72015 21.8832Z" fill="#B3B3B3"/>
<path d="M15 2.82324H9C4 2.82324 2 4.82324 2 9.82324V15.8232C2 19.6032 3.14 21.6732 5.86 22.4432C6.08 19.8432 8.75 17.7932 12 17.7932C15.25 17.7932 17.92 19.8432 18.14 22.4432C20.86 21.6732 22 19.6032 22 15.8232V9.82324C22 4.82324 20 2.82324 15 2.82324ZM12 14.9932C10.02 14.9932 8.42 13.3833 8.42 11.4033C8.42 9.42326 10.02 7.82324 12 7.82324C13.98 7.82324 15.58 9.42326 15.58 11.4033C15.58 13.3833 13.98 14.9932 12 14.9932Z" stroke="#B3B3B3" stroke-width="1.5" stroke-linecap="round" stroke-linejoin="round"/>
<path d="M11.9999 15.7432C9.60992 15.7432 7.66992 13.7933 7.66992 11.4033C7.66992 9.01326 9.60992 7.07324 11.9999 7.07324C14.3899 7.07324 16.3299 9.01326 16.3299 11.4033C16.3299 13.7933 14.3899 15.7432 11.9999 15.7432ZM11.9999 8.57324C10.4399 8.57324 9.16992 9.84326 9.16992 11.4033C9.16992 12.9733 10.4399 14.2432 11.9999 14.2432C13.5599 14.2432 14.8299 12.9733 14.8299 11.4033C14.8299 9.84326 13.5599 8.57324 11.9999 8.57324Z" fill="#B3B3B3"/>
</svg>
