<svg width="24" height="25" viewBox="0 0 24 25" fill="none" xmlns="http://www.w3.org/2000/svg">
<path d="M15.0001 23.6912H9.00014C7.68014 23.6912 6.58015 23.5612 5.65015 23.2812C5.31015 23.1812 5.09015 22.8512 5.11015 22.5012C5.36015 19.5112 8.39015 17.1611 12.0001 17.1611C15.6101 17.1611 18.6301 19.5012 18.8901 22.5012C18.9201 22.8612 18.7001 23.1812 18.3501 23.2812C17.4201 23.5612 16.3201 23.6912 15.0001 23.6912ZM6.72015 22.0012C7.38015 22.1312 8.13014 22.1912 9.00014 22.1912H15.0001C15.8701 22.1912 16.6201 22.1312 17.2801 22.0012C16.7501 20.0812 14.5601 18.6611 12.0001 18.6611C9.44015 18.6611 7.25015 20.0812 6.72015 22.0012Z" fill="#B3B3B3"/>
<path d="M15 2.94116H9C4 2.94116 2 4.94116 2 9.94116V15.9412C2 19.7212 3.14 21.7912 5.86 22.5612C6.08 19.9612 8.75 17.9111 12 17.9111C15.25 17.9111 17.92 19.9612 18.14 22.5612C20.86 21.7912 22 19.7212 22 15.9412V9.94116C22 4.94116 20 2.94116 15 2.94116ZM12 15.1111C10.02 15.1111 8.42 13.5012 8.42 11.5212C8.42 9.54118 10.02 7.94116 12 7.94116C13.98 7.94116 15.58 9.54118 15.58 11.5212C15.58 13.5012 13.98 15.1111 12 15.1111Z" stroke="#B3B3B3" stroke-width="1.5" stroke-linecap="round" stroke-linejoin="round"/>
<path d="M11.9999 15.8611C9.60992 15.8611 7.66992 13.9112 7.66992 11.5212C7.66992 9.13118 9.60992 7.19116 11.9999 7.19116C14.3899 7.19116 16.3299 9.13118 16.3299 11.5212C16.3299 13.9112 14.3899 15.8611 11.9999 15.8611ZM11.9999 8.69116C10.4399 8.69116 9.16992 9.96118 9.16992 11.5212C9.16992 13.0912 10.4399 14.3611 11.9999 14.3611C13.5599 14.3611 14.8299 13.0912 14.8299 11.5212C14.8299 9.96118 13.5599 8.69116 11.9999 8.69116Z" fill="#B3B3B3"/>
</svg>
