<svg width="24" height="25" viewBox="0 0 24 25" fill="none" xmlns="http://www.w3.org/2000/svg">
<path d="M15.0001 23.6323H9.00014C7.68014 23.6323 6.58015 23.5024 5.65015 23.2224C5.31015 23.1224 5.09015 22.7923 5.11015 22.4423C5.36015 19.4523 8.39015 17.1023 12.0001 17.1023C15.6101 17.1023 18.6301 19.4423 18.8901 22.4423C18.9201 22.8023 18.7001 23.1224 18.3501 23.2224C17.4201 23.5024 16.3201 23.6323 15.0001 23.6323ZM6.72015 21.9423C7.38015 22.0723 8.13014 22.1323 9.00014 22.1323H15.0001C15.8701 22.1323 16.6201 22.0723 17.2801 21.9423C16.7501 20.0223 14.5601 18.6023 12.0001 18.6023C9.44015 18.6023 7.25015 20.0223 6.72015 21.9423Z" fill="#B3B3B3"/>
<path d="M15 2.88232H9C4 2.88232 2 4.88232 2 9.88232V15.8823C2 19.6623 3.14 21.7323 5.86 22.5023C6.08 19.9023 8.75 17.8523 12 17.8523C15.25 17.8523 17.92 19.9023 18.14 22.5023C20.86 21.7323 22 19.6623 22 15.8823V9.88232C22 4.88232 20 2.88232 15 2.88232ZM12 15.0523C10.02 15.0523 8.42 13.4423 8.42 11.4623C8.42 9.48234 10.02 7.88232 12 7.88232C13.98 7.88232 15.58 9.48234 15.58 11.4623C15.58 13.4423 13.98 15.0523 12 15.0523Z" stroke="#B3B3B3" stroke-width="1.5" stroke-linecap="round" stroke-linejoin="round"/>
<path d="M11.9999 15.8023C9.60992 15.8023 7.66992 13.8523 7.66992 11.4623C7.66992 9.07234 9.60992 7.13232 11.9999 7.13232C14.3899 7.13232 16.3299 9.07234 16.3299 11.4623C16.3299 13.8523 14.3899 15.8023 11.9999 15.8023ZM11.9999 8.63232C10.4399 8.63232 9.16992 9.90234 9.16992 11.4623C9.16992 13.0323 10.4399 14.3023 11.9999 14.3023C13.5599 14.3023 14.8299 13.0323 14.8299 11.4623C14.8299 9.90234 13.5599 8.63232 11.9999 8.63232Z" fill="#B3B3B3"/>
</svg>
